#!OML:ASF F:\VICON\USERDATA\INSTALL\rory3\rory3.ASF
:FULLY-SPECIFIED
:DEGREES
660
root 0.433599 18.4608 -4.25796 -6.90584 4.16276 3.14117
lowerback 10.5251 -6.11416 -10.2666
upperback 5.48244 -9.03064 0.0350635
thorax 1.5462 -4.81363 6.4098
lowerneck -15.0928 -1.94577 -8.84135
upperneck 8.51196 -2.26038 11.8109
head 5.27317 -0.585395 4.99994
rclavicle 3.15571e-015 7.55382e-015
rhumerus -40.6981 -23.6988 -40.1336
rradius 85.5198
rwrist -15.5497
rhand -21.2625 9.51154
rfingers 7.12502
rthumb 5.12088 -20.4066
lclavicle 3.15571e-015 7.55382e-015
lhumerus 49.1045 5.79017 67.1325
lradius 146.287
lwrist 18.356
lhand -25.4344 10.2387
lfingers 7.12502
lthumb 1.09204 40.2157
rfemur -19.2524 9.63839 6.88662
rtibia 58.771
rfoot -11.6119 -14.616
rtoes -8.57026
lfemur -2.66266 4.58057 -24.1136
ltibia 26.7327
lfoot -15.643 -0.809474
ltoes 15.8106
661
root 0.393701 18.4591 -4.20658 -6.7424 4.22071 3.16331
lowerback 10.0434 -6.00537 -10.1413
upperback 5.2094 -8.83839 0.0496343
thorax 1.46206 -4.6983 6.31233
lowerneck -15.0374 -1.98695 -8.82192
upperneck 8.73151 -2.33159 11.7354
head 5.33797 -0.623836 4.96847
rclavicle 1.95057e-015 -2.09718e-014
rhumerus -40.869 -23.5475 -40.3551
rradius 85.5828
rwrist -15.4112
rhand -21.7525 9.39007
rfingers 7.12502
rthumb 4.64775 -20.5389
lclavicle 1.95057e-015 -2.09718e-014
lhumerus 49.254 6.78103 66.3564
lradius 146.151
lwrist 18.643
lhand -25.7173 9.7258
lfingers 7.12502
lthumb 0.818795 39.704
rfemur -17.1683 10.2048 7.29189
rtibia 55.5338
rfoot -11.7107 -14.427
rtoes -8.87039
lfemur -2.64667 4.59609 -23.9794
ltibia 26.7063
lfoot -15.6867 -0.945373
ltoes 15.7622
662
root 0.35205 18.4607 -4.15973 -6.64479 4.30392 3.15555
lowerback 9.75476 -5.88696 -9.98777
upperback 4.92835 -8.65262 0.0379078
thorax 1.25841 -4.57897 6.19959
lowerneck -14.9116 -2.03061 -8.79264
upperneck 8.90846 -2.41462 11.697
head 5.37968 -0.667693 4.94542
rclavicle -7.25067e-014 -1.19271e-014
rhumerus -41.0186 -23.4554 -40.6154
rradius 85.6081
rwrist -15.343
rhand -22.0273 9.39395
rfingers 7.12502
rthumb 4.38245 -20.5407
lclavicle -7.25067e-014 -1.19271e-014
lhumerus 49.3578 7.76435 65.6014
lradius 146.023
lwrist 19.0304
lhand -25.8823 9.0759
lfingers 7.12502
lthumb 0.659432 39.0546
rfemur -15.0847 10.7911 7.77158
rtibia 52.3793
rfoot -11.8161 -14.0761
rtoes -8.80243
lfemur -2.62075 4.57474 -23.8079
ltibia 26.7434
lfoot -15.714 -1.05211
ltoes 15.5169
663
root 0.307633 18.4579 -4.11925 -6.44331 4.27281 3.12987
lowerback 9.27281 -5.74837 -9.82261
upperback 4.73914 -8.41442 0.0353255
thorax 1.25088 -4.44752 6.05632
lowerneck -14.8896 -2.06211 -8.90646
upperneck 8.99149 -2.4563 11.8089
head 5.40934 -0.684021 4.99864
rclavicle 1.06685e-013 -1.80894e-014
rhumerus -40.9802 -23.5759 -40.9823
rradius 85.5678
rwrist -15.1801
rhand -21.5616 9.72535
rfingers 7.12502
rthumb 4.83205 -20.1996
lclavicle 1.06685e-013 -1.80894e-014
lhumerus 49.5867 8.89485 64.8863
lradius 145.9
lwrist 19.6403
lhand -25.9404 8.63787
lfingers 7.12502
lthumb 0.603276 38.6168
rfemur -13.2837 11.4663 8.30773
rtibia 49.4043
rfoot -12.6497 -13.9896
rtoes -10.8933
lfemur -2.75271 4.55514 -23.613
ltibia 26.8143
lfoot -15.7704 -1.11193
ltoes 15.5929
664
root 0.262635 18.4543 -4.07806 -6.20129 4.22377 3.03413
lowerback 8.9019 -5.6096 -9.51963
upperback 4.40668 -8.18549 0.0394463
thorax 1.01478 -4.30156 5.87285
lowerneck -14.7852 -2.08169 -9.0974
upperneck 9.17688 -2.48469 11.955
head 5.45682 -0.695768 5.07865
rclavicle 8.79684e-014 -2.65378e-014
rhumerus -41.1783 -23.3888 -41.2429
rradius 85.6315
rwrist -15.1677
rhand -20.9032 9.95047
rfingers 7.12502
rthumb 5.46784 -19.959
lclavicle 8.79684e-014 -2.65378e-014
lhumerus 49.6264 9.98939 64.1536
lradius 145.797
lwrist 20.3502
lhand -25.9904 8.62099
lfingers 7.12502
lthumb 0.554974 38.6
rfemur -11.6397 11.986 8.94315
rtibia 46.6534
rfoot -14.7361 -14.5855
rtoes -14.6867
lfemur -2.95866 4.64697 -23.3198
ltibia 26.9294
lfoot -15.8138 -1.29673
ltoes 15.7234
665
root 0.217237 18.4576 -4.03568 -6.03431 4.11538 2.9938
lowerback 8.47975 -5.43946 -9.28719
upperback 4.17963 -7.91126 -0.00334692
thorax 0.918433 -4.14543 5.66302
lowerneck -14.7501 -2.10309 -9.23235
upperneck 9.34387 -2.52946 12.1622
head 5.51271 -0.707418 5.16813
rclavicle -1.19147e-013 4.87022e-014
rhumerus -41.3214 -23.2594 -41.5785
rradius 85.7216
rwrist -15.2667
rhand -20.8279 9.85357
rfingers 7.12502
rthumb 5.54053 -20.054
lclavicle -1.19147e-013 4.87022e-014
lhumerus 49.7833 11.0194 63.3298
lradius 145.626
lwrist 20.8989
lhand -26.4058 8.49405
lfingers 7.12502
lthumb 0.15381 38.4737
rfemur -10.0348 12.4041 9.53128
rtibia 44.1656
rfoot -16.9462 -16.1263
rtoes -10.5488
lfemur -3.11771 4.76784 -23.0836
ltibia 27.1031
lfoot -15.867 -1.31698
ltoes 15.3009
